<?xml version="1.0" standalone="no"?>
<!DOCTYPE svg PUBLIC "-//W3C//DTD SVG 20010904//EN"
 "http://www.w3.org/TR/2001/REC-SVG-20010904/DTD/svg10.dtd">
<svg version="1.0" xmlns="http://www.w3.org/2000/svg"
 width="700.000000pt" height="700.000000pt" viewBox="0 0 700.000000 700.000000"
 preserveAspectRatio="xMidYMid meet">
<metadata>
Created by potrace 1.11, written by Peter Selinger 2001-2013
</metadata>
<g transform="translate(0.000000,700.000000) scale(0.100000,-0.100000)"
fill="#000000" stroke="none">
<path d="M3170 6989 c-52 -5 -162 -20 -245 -34 -1566 -261 -2774 -1563 -2914
-3142 -14 -154 -14 -473 -1 -623 96 -1055 671 -2023 1546 -2602 458 -304 899
-473 1461 -559 177 -27 586 -37 783 -20 824 73 1581 425 2165 1006 83 83 190
198 238 256 335 411 567 874 696 1387 72 288 101 529 101 842 0 313 -29 554
-101 842 -363 1450 -1606 2515 -3089 2648 -135 12 -504 11 -640 -1z m2435
-958 c44 -15 52 -22 67 -62 44 -118 29 -251 -46 -406 -86 -177 -183 -282 -509
-554 -100 -84 -190 -159 -199 -168 -16 -15 -13 -28 43 -206 100 -317 312 -993
466 -1484 l145 -463 -28 -29 c-15 -16 -31 -29 -35 -29 -4 0 -269 384 -590 853
-320 468 -586 856 -590 861 -15 16 -397 -307 -989 -838 -85 -76 -159 -142
-163 -146 -4 -4 37 -125 93 -269 55 -145 100 -268 100 -273 0 -16 -72 -108
-80 -103 -6 3 -238 336 -341 488 -3 5 -29 -3 -57 -17 -28 -14 -58 -26 -67 -26
-23 0 -19 48 9 97 l24 41 -254 175 -254 175 43 34 c23 19 47 38 54 41 7 4 131
-38 276 -93 146 -55 267 -100 270 -100 5 0 344 375 537 595 211 240 460 540
460 553 0 4 -388 272 -861 596 l-861 588 32 33 c18 19 37 32 44 30 6 -3 270
-85 586 -184 316 -99 735 -230 930 -291 512 -161 612 -192 614 -188 11 16 289
345 355 420 152 173 323 295 491 349 74 24 218 24 285 0z m-2156 -167 l73 -71
-16 -31 c-9 -18 -20 -32 -24 -32 -10 0 -207 198 -201 203 2 2 15 11 28 20 29
19 23 23 140 -89z m575 -193 c76 -77 87 -91 78 -108 -27 -50 -34 -47 -138 58
l-99 100 24 20 c13 10 28 19 35 19 6 0 51 -40 100 -89z m1293 -1293 c46 -46
83 -88 83 -96 0 -7 -7 -24 -17 -38 l-16 -25 -104 103 -103 103 22 17 c13 10
30 18 38 18 8 0 52 -37 97 -82z m210 -593 l88 -85 -19 -35 -20 -36 -103 103
c-103 103 -104 103 -82 121 12 9 27 17 35 17 7 0 53 -38 101 -85z m-2794 -693
c15 -17 10 -24 -93 -127 -109 -108 -109 -109 -130 -90 l-21 19 108 108 c59 59
110 108 114 108 3 0 13 -8 22 -18z m3441 -235 c17 -13 16 -19 -28 -123 -60
-142 -57 -138 -88 -124 l-25 12 47 106 c26 59 50 115 53 125 8 20 17 21 41 4z
m-3811 -125 c15 -17 10 -24 -93 -127 -109 -108 -109 -109 -130 -90 l-21 19
108 108 c59 59 110 108 114 108 3 0 13 -8 22 -18z m3597 -360 c-16 -26 -59
-85 -96 -130 l-67 -84 -20 21 -20 20 55 68 c30 37 72 94 93 125 36 56 38 57
61 42 l23 -16 -29 -46z m-3937 -36 c-4 -6 -26 -36 -48 -66 -23 -30 -58 -83
-79 -117 -21 -35 -41 -63 -45 -63 -4 0 -16 6 -26 14 -17 12 -16 16 20 77 22
35 61 94 89 131 48 65 50 66 73 51 13 -9 20 -20 16 -27z m3593 -273 c7 -10 14
-21 14 -25 1 -22 -196 -96 -265 -101 -37 -2 -40 0 -43 26 -3 23 0 27 22 27 32
0 171 45 216 70 43 24 40 24 56 3z m-1006 -112 c0 -27 -2 -29 -61 -35 -33 -4
-101 -17 -151 -30 l-90 -23 -9 24 c-5 14 -9 26 -9 27 0 7 127 39 200 51 117
20 120 20 120 -14z m449 23 c56 -6 61 -9 61 -30 0 -24 -1 -24 -117 -24 -162 0
-193 6 -193 36 0 24 2 24 94 24 51 0 121 -3 155 -6z m-3273 -140 c-6 -47 -6
-105 0 -154 l9 -78 -27 -4 c-25 -4 -28 -1 -35 31 -4 20 -7 77 -7 126 0 50 3
106 7 126 7 32 10 35 35 31 l28 -4 -10 -74z m2332 -28 c10 -22 6 -27 -57 -69
-37 -25 -93 -65 -123 -90 -56 -46 -56 -46 -75 -25 -18 20 -17 21 27 59 47 42
199 149 210 149 4 0 12 -11 18 -24z m-393 -330 c18 -13 18 -14 -3 -42 -11 -16
-61 -69 -109 -117 -88 -87 -89 -88 -108 -68 -18 20 -16 22 86 130 57 60 107
110 110 110 3 1 14 -5 24 -13z m-1836 -143 c22 -43 55 -100 75 -128 33 -46 34
-50 19 -67 -9 -10 -20 -18 -25 -18 -12 0 -97 134 -133 208 -25 54 -27 65 -15
72 29 19 40 9 79 -67z m1459 -255 c-45 -36 -134 -96 -189 -127 l-56 -31 -11
24 c-10 23 -7 27 66 72 42 26 100 65 127 86 l50 38 18 -22 c18 -21 18 -22 -5
-40z m-1142 -109 c35 -22 94 -53 132 -67 48 -19 67 -32 65 -42 -3 -8 -6 -21
-8 -28 -9 -28 -285 109 -285 142 0 12 19 36 29 36 2 0 33 -18 67 -41z m699
-100 c4 -12 3 -25 -2 -30 -15 -15 -191 -49 -250 -49 -52 0 -53 1 -53 29 l0 28
93 6 c50 3 112 12 137 20 62 20 68 20 75 -4z"/>
<path d="M5355 5975 c-5 -2 -27 -6 -47 -10 -52 -8 -48 -19 7 -23 26 -2 57 -7
69 -12 20 -7 25 -5 30 12 3 12 3 25 0 30 -5 8 -39 10 -59 3z"/>
<path d="M5453 5934 c-7 -22 -2 -32 46 -80 52 -52 56 -54 83 -43 27 11 27 12
12 43 -21 41 -53 75 -86 92 -37 19 -45 18 -55 -12z"/>
<path d="M5587 5773 c-16 -4 -18 -11 -11 -41 4 -21 10 -55 13 -77 l7 -40 12
47 c13 52 16 119 5 117 -5 -1 -16 -3 -26 -6z"/>
</g>
</svg>
