<svg width="21" height="24" viewBox="0 0 21 24" fill="none" xmlns="http://www.w3.org/2000/svg">
<path fill-rule="evenodd" clip-rule="evenodd" d="M1.78351 23.0212C1.66876 23.0212 1.55626 22.995 1.45426 22.9485C1.45126 22.947 1.44901 22.944 1.44601 22.9432C1.34851 22.8967 1.26001 22.833 1.18651 22.7527C1.18576 22.7512 1.18501 22.749 1.18351 22.7482L7.70781 16.8142C7.76031 16.7864 7.81131 16.7534 7.85331 16.7062C7.86681 16.6904 7.87131 16.6709 7.88256 16.6544L10.5016 14.2724L19.8159 22.7482C19.8137 22.7512 19.8129 22.7542 19.8107 22.7565C19.7559 22.8165 19.6869 22.8577 19.6187 22.8982C19.5917 22.914 19.5707 22.9387 19.5414 22.9515C19.4409 22.9957 19.3306 23.0212 19.2159 23.0212H1.78351ZM0.960007 11.0902L6.7583 16.3649L0.960007 21.6397V11.0902ZM10.5398 1.13307L20.0402 9.44464V9.77764L13.5204 15.7087L10.8203 13.2517C10.6381 13.0867 10.3643 13.0867 10.1813 13.2517L7.47981 15.7094L0.960007 9.77839V9.44539L10.5398 1.13307ZM14.2419 16.3649L20.0402 11.0894V21.6405L14.2419 16.3649ZM21.0002 9.21964C21.0002 9.07638 20.9387 8.94138 20.8329 8.84838L10.8541 0.118316C10.6748 -0.0384351 10.4108 -0.0399351 10.2308 0.116816L0.169501 8.84688C0.0622505 8.93988 0 9.07638 0 9.21964V22.1805C0 22.4077 0.0457503 22.6222 0.120001 22.8225C0.120751 22.8232 0.120001 22.824 0.120751 22.8247C0.120751 22.8262 0.121501 22.827 0.122251 22.8277C0.184501 22.995 0.271502 23.1472 0.377253 23.2867C0.387753 23.3002 0.397503 23.3122 0.408753 23.325C0.617255 23.586 0.893257 23.7847 1.21276 23.8958C1.24051 23.9055 1.26826 23.9137 1.29751 23.9227C1.45276 23.9677 1.61401 24 1.78351 24H19.2159C19.3854 24 19.5459 23.9677 19.7019 23.9227C19.7319 23.9137 19.7612 23.9055 19.7904 23.895C20.1077 23.784 20.3822 23.586 20.5907 23.3265C20.6019 23.3122 20.6139 23.2987 20.6252 23.2845C20.7302 23.1442 20.8172 22.9912 20.8794 22.824C20.8794 22.8232 20.8794 22.8232 20.8794 22.8232V22.8225C20.9544 22.6222 21.0002 22.4077 21.0002 22.1805V9.21964Z" fill="#35424B"/>
</svg>
