<svg width="16" height="18" viewBox="0 0 16 18" fill="none" xmlns="http://www.w3.org/2000/svg">
<path fill-rule="evenodd" clip-rule="evenodd" d="M1.35886 17.2659C1.27143 17.2659 1.18571 17.2462 1.108 17.2114C1.10571 17.2102 1.104 17.208 1.10171 17.2074C1.02743 17.1726 0.96 17.1247 0.904 17.0646C0.903429 17.0634 0.902857 17.0617 0.901714 17.0612L5.87257 12.6106C5.91257 12.5898 5.95143 12.5651 5.98343 12.5296C5.99371 12.5178 5.99714 12.5032 6.00571 12.4908L8.00114 10.7043L15.0977 17.0612C15.096 17.0634 15.0954 17.0657 15.0937 17.0674C15.052 17.1124 14.9994 17.1433 14.9474 17.1737C14.9269 17.1855 14.9109 17.2041 14.8886 17.2136C14.812 17.2468 14.728 17.2659 14.6406 17.2659H1.35886ZM0.731429 8.31761L5.14914 12.2737L0.731429 16.2298V8.31761ZM8.03029 0.849805L15.2686 7.08348V7.33323L10.3011 11.7815L8.244 9.93875C8.10514 9.815 7.89657 9.815 7.75714 9.93875L5.69886 11.7821L0.731429 7.33379V7.08404L8.03029 0.849805ZM10.8509 12.2737L15.2686 8.31705V16.2304L10.8509 12.2737ZM16 6.91473C16 6.80729 15.9531 6.70604 15.8726 6.63629L8.26971 0.0887371C8.13314 -0.0288263 7.932 -0.0299513 7.79486 0.0876121L0.129143 6.63516C0.0474286 6.70491 0 6.80729 0 6.91473V16.6354C0 16.8058 0.0348571 16.9667 0.0914286 17.1169C0.092 17.1174 0.0914286 17.118 0.092 17.1186C0.092 17.1197 0.0925714 17.1202 0.0931429 17.1208C0.140571 17.2462 0.206857 17.3604 0.287429 17.4651C0.295429 17.4752 0.302857 17.4842 0.311429 17.4937C0.470286 17.6895 0.680571 17.8386 0.924 17.9218C0.945143 17.9291 0.966286 17.9353 0.988571 17.9421C1.10686 17.9758 1.22971 18 1.35886 18H14.6406C14.7697 18 14.892 17.9758 15.0109 17.9421C15.0337 17.9353 15.056 17.9291 15.0783 17.9212C15.32 17.838 15.5291 17.6895 15.688 17.4949C15.6966 17.4842 15.7057 17.4741 15.7143 17.4634C15.7943 17.3582 15.8606 17.2434 15.908 17.118C15.908 17.1174 15.908 17.1174 15.908 17.1174V17.1169C15.9651 16.9667 16 16.8058 16 16.6354V6.91473Z" fill="#35424B"/>
</svg>
