<?xml version="1.0" encoding="utf-8"?>
<!-- Generator: Adobe Illustrator 24.1.2, SVG Export Plug-In . SVG Version: 6.00 Build 0)  -->
<svg version="1.1" id="Слой_1" xmlns="http://www.w3.org/2000/svg" xmlns:xlink="http://www.w3.org/1999/xlink" x="0px" y="0px"
	 viewBox="0 0 24 27" style="enable-background:new 0 0 24 27;" xml:space="preserve">
<style type="text/css">
	.st0{fill-rule:evenodd;clip-rule:evenodd;fill:#22C3CA;}
</style>
<path class="st0" d="M10,27c-0.6,0-1.1-0.5-1.1-1.1s0.5-1.1,1.1-1.1h2.3V23c-3.1-0.3-6.1-1.6-8.3-3.8C1.4,16.7,0,13.3,0,9.8
	c0-3.6,1.4-6.9,3.9-9.4C4.1,0.1,4.4,0,4.7,0C5,0,5.3,0.1,5.5,0.3c0.4,0.4,0.4,1.1,0,1.6C3.4,4,2.2,6.8,2.2,9.8c0,3,1.2,5.7,3.2,7.8
	c2.1,2.1,4.9,3.2,7.8,3.2c3,0,5.7-1.2,7.8-3.2c0.2-0.2,0.5-0.3,0.8-0.3c0.3,0,0.6,0.1,0.8,0.3c0.2,0.2,0.3,0.5,0.3,0.8
	c0,0.3-0.1,0.6-0.3,0.8c-2.2,2.2-5.2,3.6-8.3,3.8v1.7h2.3c0.6,0,1.1,0.5,1.1,1.1S17.3,27,16.7,27H10z"/>
<path class="st0" d="M13,2.2c-4.1,0-7.4,3.3-7.4,7.4c0,4.1,3.3,7.4,7.4,7.4c4.1,0,7.4-3.3,7.4-7.4C20.3,5.5,17,2.2,13,2.2z M13,19.2
	c-5.3,0-9.6-4.3-9.6-9.6C3.4,4.3,7.7,0,13,0c5.3,0,9.6,4.3,9.6,9.6C22.6,14.9,18.3,19.2,13,19.2z"/>
</svg>
