<?xml version="1.0" encoding="utf-8"?>
<!-- Generator: Adobe Illustrator 24.1.2, SVG Export Plug-In . SVG Version: 6.00 Build 0)  -->
<svg version="1.1" id="Слой_1" xmlns="http://www.w3.org/2000/svg" xmlns:xlink="http://www.w3.org/1999/xlink" x="0px" y="0px"
	 viewBox="0 0 17 24" style="enable-background:new 0 0 17 24;" xml:space="preserve">
<style type="text/css">
	.st0{fill-rule:evenodd;clip-rule:evenodd;fill:#22C3CA;}
</style>
<path class="st0" d="M11.5,8.9L11,15.8c0,0.4-0.3,0.7-0.6,0.7H6.1c-0.3,0-0.6-0.3-0.6-0.7L5,8.9c0,0,0-0.1,0-0.1l0.2-0.2
	c0,0,0-0.1,0.1-0.1c0.1-0.1,0.2-0.1,0.4-0.1h5.2c0.1,0,0.3,0,0.4,0.1c0,0,0,0.1,0.1,0.1l0.2,0.2C11.5,8.8,11.5,8.9,11.5,8.9z
	 M16.4,13.3l-4-5c-0.1-0.2-0.2-0.3-0.3-0.5c-0.3-0.3-0.8-0.5-1.3-0.5H5.7c-0.5,0-1,0.2-1.3,0.5C4.3,8,4.2,8.1,4.1,8.3l-4,5
	C-0.1,13.5,0,13.9,0.2,14c0.1,0.1,0.2,0.1,0.3,0.1c0.2,0,0.3-0.1,0.4-0.2L4,10.1l0.4,5.9c0.1,0.9,0.8,1.6,1.6,1.6h0.2
	c-0.2,0.1-0.4,0.3-0.4,0.5v5.4c0,0.3,0.2,0.5,0.5,0.5c0.3,0,0.5-0.2,0.5-0.5V18c0-0.2-0.2-0.4-0.4-0.5H10c-0.2,0.1-0.4,0.3-0.4,0.5
	v5.4c0,0.3,0.2,0.5,0.5,0.5c0.3,0,0.5-0.2,0.5-0.5V18c0-0.2-0.2-0.4-0.4-0.5h0.2c0.9,0,1.6-0.7,1.6-1.6l0.4-5.9l3.1,3.9
	c0.1,0.1,0.3,0.2,0.4,0.2c0.1,0,0.2,0,0.3-0.1C16.6,13.9,16.6,13.5,16.4,13.3z"/>
<path class="st0" d="M8.3,1.1c0.9,0,1.6,0.7,1.6,1.6c0,0.9-0.7,1.6-1.6,1.6c-0.9,0-1.6-0.7-1.6-1.6C6.6,1.8,7.4,1.1,8.3,1.1z
	 M8.3,5.4c1.5,0,2.7-1.2,2.7-2.7C10.9,1.2,9.7,0,8.3,0C6.8,0,5.6,1.2,5.6,2.7C5.6,4.2,6.8,5.4,8.3,5.4z"/>
</svg>
