<?xml version="1.0" encoding="utf-8"?>
<!-- Generator: Adobe Illustrator 24.1.2, SVG Export Plug-In . SVG Version: 6.00 Build 0)  -->
<svg version="1.1" id="Слой_1" xmlns="http://www.w3.org/2000/svg" xmlns:xlink="http://www.w3.org/1999/xlink" x="0px" y="0px"
	 viewBox="0 0 40 40" style="enable-background:new 0 0 40 40;" xml:space="preserve">

<path class="st0" d="M32.5,25.7c0,3.7-3,6.8-6.8,6.8H14.3c-3.7,0-6.8-3-6.8-6.8V14.3c0-3.7,3-6.8,6.8-6.8h11.5c3.7,0,6.8,3,6.8,6.8
	V25.7z M20,0C9,0,0,9,0,20c0,11,9,20,20,20s20-9,20-20C40,9,31,0,20,0z M15.8,20c0,2.3,1.9,4.2,4.2,4.2s4.2-1.9,4.2-4.2
	s-1.9-4.2-4.2-4.2S15.8,17.7,15.8,20z"/>
</svg>
