<svg width="16" height="19" viewBox="0 0 16 19" fill="none" xmlns="http://www.w3.org/2000/svg">
<path fill-rule="evenodd" clip-rule="evenodd" d="M0 7.969C0 3.575 3.588 0 8 0C12.411 0 16 3.575 16 7.969C16 12.284 8.582 18.634 8.266 18.902C8.189 18.967 8.094 19 8 19C7.905 19 7.811 18.967 7.734 18.902C7.418 18.634 0 12.284 0 7.969ZM1 7.97221C1 11.3945 6.70374 16.6487 8.00049 17.7992C9.29724 16.6487 15 11.3945 15 7.97221C15 4.12779 11.8595 1 8.00049 1C4.14047 1 1 4.12779 1 7.97221ZM8.00808 4C5.80668 4 4.01615 5.78404 4.01615 7.97679C4.01615 10.1695 5.80668 11.9525 8.00808 11.9525C10.2095 11.9525 12 10.1695 12 7.97679C12 5.78404 10.2095 4 8.00808 4ZM5 7.98799C5 9.63556 6.34668 10.976 8.00052 10.976C9.65436 10.976 11 9.63556 11 7.98799C11 6.34041 9.65436 5 8.00052 5C6.34668 5 5 6.34041 5 7.98799Z" fill="#35424B"/>
</svg>
