<svg width="12" height="18" viewBox="0 0 12 18" fill="none" xmlns="http://www.w3.org/2000/svg">
<path fill-rule="evenodd" clip-rule="evenodd" d="M0.7995 17.217H11.1998V0.783H0.7995V17.217ZM11.6003 18H0.39975C0.1785 18 0 17.8252 0 17.6092V0.39075C0 0.17475 0.1785 0 0.39975 0H11.6003C11.8215 0 12 0.17475 12 0.39075V17.6092C12 17.8252 11.8215 18 11.6003 18Z" fill="#35424B"/>
<path fill-rule="evenodd" clip-rule="evenodd" d="M2.40002 12.5204H9.60002V3.39138H2.40002V12.5204ZM9.99977 13.3034H2.00027C1.77902 13.3034 1.60052 13.1286 1.60052 12.9126V3.00063C1.60052 2.78388 1.77902 2.60913 2.00027 2.60913H9.99977C10.221 2.60913 10.3995 2.78388 10.3995 3.00063V12.9126C10.3995 13.1286 10.221 13.3034 9.99977 13.3034Z" fill="#35424B"/>
<path fill-rule="evenodd" clip-rule="evenodd" d="M6.94992 15.0491C6.94992 15.5621 6.52392 15.9784 5.99967 15.9784C5.47467 15.9784 5.05017 15.5621 5.05017 15.0491C5.05017 14.5361 5.47467 14.1199 5.99967 14.1199C6.52392 14.1199 6.94992 14.5361 6.94992 15.0491Z" fill="#35424B"/>
</svg>
