<svg width="16" height="24" viewBox="0 0 16 24" fill="none" xmlns="http://www.w3.org/2000/svg">
<path fill-rule="evenodd" clip-rule="evenodd" d="M1.066 22.956H14.933V1.044H1.066V22.956ZM15.467 24H0.533C0.238 24 0 23.767 0 23.479V0.521C0 0.233 0.238 0 0.533 0H15.467C15.762 0 16 0.233 16 0.521V23.479C16 23.767 15.762 24 15.467 24Z" fill="#35424B"/>
<path fill-rule="evenodd" clip-rule="evenodd" d="M3.20003 16.694H12.8V4.522H3.20003V16.694ZM13.333 17.738H2.66703C2.37203 17.738 2.13403 17.505 2.13403 17.217V4.001C2.13403 3.712 2.37203 3.479 2.66703 3.479H13.333C13.628 3.479 13.866 3.712 13.866 4.001V17.217C13.866 17.505 13.628 17.738 13.333 17.738Z" fill="#35424B"/>
<path fill-rule="evenodd" clip-rule="evenodd" d="M9.26664 20.0654C9.26664 20.7494 8.69864 21.3044 7.99964 21.3044C7.29964 21.3044 6.73364 20.7494 6.73364 20.0654C6.73364 19.3814 7.29964 18.8264 7.99964 18.8264C8.69864 18.8264 9.26664 19.3814 9.26664 20.0654Z" fill="#35424B"/>
</svg>
