<?xml version="1.0" encoding="utf-8"?>
<!-- Generator: Adobe Illustrator 24.1.2, SVG Export Plug-In . SVG Version: 6.00 Build 0)  -->
<svg version="1.1" id="Слой_1" xmlns="http://www.w3.org/2000/svg" xmlns:xlink="http://www.w3.org/1999/xlink" x="0px" y="0px"
	 viewBox="0 0 32 32" style="enable-background:new 0 0 32 32;" xml:space="preserve">
<style type="text/css">
	.st0{fill-rule:evenodd;clip-rule:evenodd;fill:#22C3CA;}
</style>
<path class="st0" d="M16,0.7C7.6,0.7,0.7,7.6,0.7,16c0,8.4,6.9,15.3,15.3,15.3c8.4,0,15.3-6.9,15.3-15.3C31.3,7.6,24.4,0.7,16,0.7z
	 M16,32C7.2,32,0,24.8,0,16C0,7.2,7.2,0,16,0c8.8,0,16,7.2,16,16C32,24.8,24.8,32,16,32z"/>
<path class="st0" d="M8.7,11.3c0,2.9,1.3,5.9,3.7,8.3l0.1,0.1c2.3,2.3,5.3,3.7,8.2,3.7l0.1,0c0.2-0.2,0.4-0.3,0.6-0.5
	c0.8-0.8,1.3-1.6,1.7-2.6c0-0.1-0.1-0.5-0.2-0.6c-1.1-0.5-2.1-0.8-3.7-1.2c-0.2,0-0.4,0.1-0.5,0.1L18,19.8c-0.3,0.6-1.3,0.6-2,0.1
	c-0.7-0.5-1.4-1.1-2.1-1.8c-0.7-0.7-1.3-1.4-1.8-2.1c-0.3-0.4-0.4-0.9-0.3-1.3c0.1-0.3,0.2-0.5,0.5-0.7l1.3-0.8
	c0-0.1,0.1-0.4,0.1-0.5c-0.3-1.3-0.8-2.7-1.2-3.7c0,0-0.3-0.1-0.5-0.1c-0.1,0-0.1,0-0.1,0c-1,0.4-1.9,1-2.6,1.7
	C9,10.9,8.8,11.1,8.7,11.3z M20.6,24.1c-3.1,0-6.3-1.4-8.7-3.9c-2.6-2.6-4-5.9-3.9-9l0-0.1L8,11c0.2-0.3,0.4-0.5,0.7-0.8
	c0.8-0.8,1.8-1.5,2.9-1.9c0.1,0,0.2-0.1,0.3-0.1c0.4,0,1,0.2,1.1,0.6c0.4,1.1,0.9,2.5,1.2,3.8c0.1,0.3,0,1-0.4,1.2l-1.3,0.8
	c-0.1,0.1-0.1,0.1-0.1,0.2c0,0.2,0,0.5,0.2,0.7c0.5,0.7,1.1,1.4,1.7,2c0.6,0.6,1.3,1.2,2,1.7c0.3,0.3,0.8,0.3,0.9,0.1l0.8-1.3
	c0.2-0.4,1-0.4,1-0.4c0.1,0,0.1,0,0.2,0c1.6,0.4,2.6,0.7,3.8,1.2c0.4,0.2,0.7,1,0.5,1.5c-0.4,1.1-1.1,2.1-1.9,2.9
	c-0.2,0.2-0.5,0.5-0.8,0.7L21,24.1L20.6,24.1z"/>
<path class="st0" d="M23.7,16.2c-0.2,0-0.4-0.2-0.4-0.4c0-4-3.2-7.2-7.2-7.2c-0.2,0-0.4-0.2-0.4-0.4c0-0.2,0.2-0.4,0.4-0.4
	c4.4,0,7.9,3.6,7.9,7.9C24.1,16,23.9,16.2,23.7,16.2z"/>
<path class="st0" d="M21.5,16.2c-0.2,0-0.4-0.2-0.4-0.4c0-2.8-2.2-5-5-5c-0.2,0-0.4-0.2-0.4-0.4c0-0.2,0.2-0.4,0.4-0.4
	c3.2,0,5.7,2.6,5.7,5.7C21.8,16,21.7,16.2,21.5,16.2z"/>
<path class="st0" d="M19.1,16.2c-0.2,0-0.4-0.2-0.4-0.4c0-1.5-1.2-2.7-2.7-2.7c-0.2,0-0.4-0.2-0.4-0.4c0-0.2,0.2-0.4,0.4-0.4
	c1.9,0,3.4,1.5,3.4,3.4C19.5,16,19.3,16.2,19.1,16.2z"/>
</svg>
