<?xml version="1.0" encoding="utf-8"?>
<!-- Generator: Adobe Illustrator 24.1.2, SVG Export Plug-In . SVG Version: 6.00 Build 0)  -->
<svg version="1.1" id="Capa_1" xmlns="http://www.w3.org/2000/svg" xmlns:xlink="http://www.w3.org/1999/xlink" x="0px" y="0px"
	 viewBox="0 0 400.2 400.2" style="enable-background:new 0 0 400.2 400.2;" xml:space="preserve">
<g>
	<path d="M396.3,49.5c6.1-18.3,4.9-32.4-3.4-42.3c-9.9-8.4-24-9.5-42.3-3.4c-18.3,6.1-34.6,16.4-49.1,30.8l-45.7,45.7L66,35
		c-3-1-5.9-0.2-8.6,2.3L20.9,73.8c-2.1,2.1-3,4.7-2.6,7.7c0.6,3,2.2,5.3,4.9,6.9l145,79.7L94.2,242l-55.4-15.1
		c-0.4-0.2-1.1-0.3-2.3-0.3c-2.7,0-4.9,0.9-6.6,2.6L2.6,256.8c-1.9,2.3-2.8,4.7-2.6,7.1c0.4,3,1.6,5.2,3.7,6.6l71.9,54l54,71.9
		c1.7,2.1,4,3.3,6.9,3.7h0.6c2.7,0,4.9-0.9,6.6-2.6l27.4-27.4c2.5-2.7,3.2-5.6,2.3-8.9l-15.1-55.4l73.9-74l79.7,145
		c1.1,2.5,3.1,4,6,4.6c0.6,0.2,1.2,0.3,2,0.3c2.3,0,4.1-0.6,5.4-1.7l36.6-27.4c3.2-2.7,4.4-5.8,3.4-9.4l-45.7-198.7l46-46
		C379.9,84.2,390.2,67.8,396.3,49.5z"/>
</g>
</svg>
