<?xml version="1.0" encoding="utf-8"?>
<!-- Generator: Adobe Illustrator 24.1.2, SVG Export Plug-In . SVG Version: 6.00 Build 0)  -->
<svg version="1.1" baseProfile="basic" id="Слой_1"
	 xmlns="http://www.w3.org/2000/svg" xmlns:xlink="http://www.w3.org/1999/xlink" x="0px" y="0px" viewBox="0 0 32 32"
	 xml:space="preserve">
<path id="Search_Icon" fill-rule="evenodd" clip-rule="evenodd" d="M31.8,30.8L23.9,23c2.4-2.4,3.8-5.8,3.8-9.4
	C27.7,6.1,21.5,0,13.9,0C6.2,0,0,6.1,0,13.6c0,7.5,6.2,13.6,13.9,13.6c3.4,0,6.5-1.2,9-3.2l7.9,7.8c0.1,0.1,0.3,0.2,0.5,0.2
	c0.2,0,0.4-0.1,0.5-0.2C32.1,31.5,32.1,31.1,31.8,30.8z M1.5,13.6C1.5,6.9,7,1.4,13.9,1.4c6.8,0,12.4,5.5,12.4,12.2
	c0,6.7-5.6,12.2-12.4,12.2C7,25.8,1.5,20.4,1.5,13.6z M5.7,13.6H4.2c0-5.2,4.3-9.5,9.7-9.5v1.4C9.3,5.6,5.7,9.2,5.7,13.6z"/>
</svg>
