<?xml version="1.0" encoding="utf-8"?>
<!-- Generator: Adobe Illustrator 24.1.2, SVG Export Plug-In . SVG Version: 6.00 Build 0)  -->
<svg version="1.1" id="Слой_1" xmlns="http://www.w3.org/2000/svg" xmlns:xlink="http://www.w3.org/1999/xlink" x="0px" y="0px"
	 viewBox="0 0 40 40" style="enable-background:new 0 0 40 40;" xml:space="preserve">
<path class="st0" d="M20,0C9,0,0,9,0,20c0,11,9,20,20,20c11,0,20-9,20-20C40,9,31,0,20,0z M34.1,14.2c-0.7,1.1-1.3,2.3-2,3.4
	c-0.8,1.2-1.7,2.3-2.5,3.5c-0.5,0.7-0.4,1.2,0.2,1.8c0.7,0.7,1.3,1.3,2,2c0.9,1,1.9,1.9,2.4,3.2c0.4,1.2-0.8,1.2-1.4,1.2
	c-1.3,0-2.6,0-3.9,0c-0.5,0-1,0-1.3-0.2c-0.7-0.4-1.4-1-2-1.6c-0.6-0.5-1-1.1-1.6-1.6c-0.9-0.8-1.6-0.6-1.9,0.5
	c-0.2,0.6-0.2,1.3-0.3,1.9c-0.1,0.6-0.4,0.9-0.9,0.9c-1.1,0-2.2,0.1-3.2,0c-2.7-0.4-4.8-1.8-6.5-3.8c-1.2-1.3-2.2-2.8-3.1-4.3
	c-1.3-2.3-2.5-4.8-3.7-7.2c-0.1-0.2-0.4-0.8,1.2-0.8c1.2,0,2.4,0,3.7,0c0.8,0,1.3,0.2,1.6,1c0.7,1.5,1.4,3,2.2,4.5
	c0.4,0.7,0.9,1.3,1.4,1.8c0.5,0.6,1.1,0.4,1.3-0.4c0.4-1.3,0.4-2.7,0.3-4.1c-0.1-1.2-0.3-2.2-1.9-2.4c0.3-0.6,0.8-0.9,1.3-1
	c1.7-0.3,3.4-0.3,5.2,0c0.8,0.1,1.1,0.5,1.1,1.3c0,0.3,0,0.6,0,0.9c0,1.3-0.1,2.6-0.1,3.9c0,0.5,0.1,1,0.2,1.5
	c0.2,0.6,0.7,0.7,1.1,0.3c0.3-0.2,0.5-0.5,0.7-0.8c1.4-1.7,2.4-3.6,3.2-5.7c0.2-0.6,0.6-0.8,1.2-0.8h4.7
	C34.9,13.1,34.2,13.9,34.1,14.2z"/>
</svg>
